<?xml version="1.0" standalone="no"?>
<!DOCTYPE svg PUBLIC "-//W3C//DTD SVG 20010904//EN"
 "http://www.w3.org/TR/2001/REC-SVG-20010904/DTD/svg10.dtd">
<svg version="1.0" xmlns="http://www.w3.org/2000/svg"
 width="1133.000000pt" height="1280.000000pt" viewBox="0 0 1133.000000 1280.000000"
 preserveAspectRatio="xMidYMid meet">
<metadata>
Created by potrace 1.15, written by Peter Selinger 2001-2017
</metadata>
<g transform="translate(0.000000,1280.000000) scale(0.100000,-0.100000)"
fill="#000000" stroke="none">
<path d="M5604 12679 c-33 -63 -258 -500 -500 -973 -321 -628 -450 -871 -481
-906 -59 -66 -126 -94 -213 -87 -36 2 -91 14 -122 25 -41 15 -681 353 -832
440 -14 8 -19 37 375 -2133 145 -798 162 -902 163 -1005 1 -104 -2 -120 -24
-164 -14 -27 -43 -63 -64 -80 -33 -27 -45 -31 -96 -30 -67 1 -144 34 -200 86
-19 18 -321 368 -670 777 -515 603 -636 740 -642 725 -4 -11 -53 -185 -108
-389 -68 -247 -109 -382 -126 -407 -30 -47 -89 -85 -153 -99 -57 -12 -2 -23
-974 191 -379 84 -690 150 -692 148 -3 -2 88 -355 201 -784 271 -1027 284
-1083 284 -1166 0 -112 -31 -150 -184 -222 -50 -24 -194 -94 -319 -155 l-228
-112 1338 -1135 c736 -625 1368 -1166 1404 -1203 82 -84 110 -150 112 -261 1
-68 -10 -113 -121 -492 -67 -229 -122 -418 -122 -421 0 -3 15 -4 33 -1 17 2
238 29 490 59 537 65 1206 145 1790 216 411 50 418 50 468 34 58 -20 134 -86
144 -127 4 -15 -21 -690 -54 -1500 -34 -810 -61 -1485 -61 -1500 l0 -28 225 0
225 0 0 78 c0 42 -16 720 -35 1505 l-35 1429 20 39 c24 46 87 95 141 109 30 8
131 -1 496 -45 688 -83 1227 -148 1738 -209 253 -31 475 -58 493 -60 17 -3 32
-2 32 1 0 3 -55 192 -122 421 -111 379 -122 424 -121 492 2 111 30 177 112
261 36 37 668 578 1404 1203 l1338 1135 -228 112 c-125 61 -269 131 -319 155
-153 72 -184 110 -184 222 0 83 13 139 284 1166 113 429 204 782 201 784 -2 2
-313 -64 -692 -148 -972 -214 -917 -203 -974 -191 -64 14 -123 52 -153 99 -17
25 -58 160 -126 407 -55 204 -104 378 -108 389 -6 15 -127 -122 -642 -725
-349 -409 -651 -759 -670 -777 -56 -52 -133 -85 -200 -86 -51 -1 -63 3 -96 30
-21 17 -50 53 -64 80 -22 44 -25 60 -24 164 1 103 18 207 163 1005 394 2170
389 2141 375 2133 -151 -87 -791 -425 -832 -440 -31 -11 -86 -23 -122 -25 -87
-7 -154 21 -213 87 -31 35 -171 300 -532 1005 -269 526 -495 964 -501 972 -9
13 -22 -6 -70 -98z"/>
</g>
</svg>
