<?xml version="1.0" standalone="no"?>
<!DOCTYPE svg PUBLIC "-//W3C//DTD SVG 20010904//EN"
 "http://www.w3.org/TR/2001/REC-SVG-20010904/DTD/svg10.dtd">
<svg version="1.0" xmlns="http://www.w3.org/2000/svg"
 width="1280.000000pt" height="1280.000000pt" viewBox="0 0 1280.000000 1280.000000"
 preserveAspectRatio="xMidYMid meet">
<metadata>
Created by potrace 1.15, written by Peter Selinger 2001-2017
</metadata>
<g transform="translate(0.000000,1280.000000) scale(0.100000,-0.100000)"
fill="#ffffff" stroke="none">
<path d="M6412 12785 c2 -5 49 -102 105 -215 655 -1323 797 -2633 431 -3969
-105 -383 -249 -753 -450 -1155 l-90 -180 59 51 c70 61 254 250 378 388 570
633 898 1247 1012 1893 25 145 28 178 28 422 0 301 -11 402 -75 655 -131 522
-409 1023 -868 1565 -91 108 -537 567 -530 545z"/>
<path d="M4781 12543 c14 -16 52 -57 84 -93 106 -116 265 -311 387 -473 578
-773 935 -1619 1057 -2507 40 -293 46 -397 45 -770 -1 -388 -10 -527 -60 -870
-24 -167 -99 -563 -111 -585 -4 -7 -2 -7 5 0 36 34 252 420 362 648 299 619
440 1164 440 1702 0 326 -47 609 -149 894 -224 623 -697 1186 -1411 1679 -186
129 -640 402 -668 402 -3 0 5 -12 19 -27z"/>
<path d="M8060 12567 c0 -3 9 -43 20 -89 55 -232 111 -604 141 -928 19 -201
16 -756 -5 -960 -106 -1048 -465 -1943 -1124 -2810 -133 -174 -261 -327 -431
-514 l-36 -39 70 38 c390 212 780 476 1060 718 142 122 388 375 490 502 282
353 489 781 570 1180 73 359 71 748 -6 1145 -96 500 -330 1071 -672 1640 -72
119 -77 127 -77 117z"/>
<path d="M3402 11811 c595 -396 1098 -861 1483 -1372 658 -874 1011 -1901
1083 -3149 l8 -135 27 85 c71 229 159 621 197 878 33 232 41 328 47 582 8 353
-17 592 -93 900 -158 638 -522 1161 -1094 1570 -411 294 -965 539 -1605 709
-272 73 -270 76 -53 -68z"/>
<path d="M9596 11820 c-33 -564 -104 -1005 -231 -1451 -95 -331 -192 -583
-345 -894 -263 -535 -573 -967 -1005 -1401 -316 -317 -629 -570 -1029 -833
-146 -95 -160 -105 -136 -97 8 3 56 15 105 27 232 55 522 144 760 234 982 371
1649 959 1951 1720 147 373 207 707 207 1170 1 474 -65 918 -218 1455 l-52
185 -7 -115z"/>
<path d="M1891 10926 c2 -3 87 -32 188 -65 752 -249 1397 -602 1962 -1072 159
-133 485 -459 618 -618 469 -563 819 -1202 1068 -1950 36 -108 67 -198 70
-201 3 -3 3 157 0 355 -8 515 -46 840 -143 1228 -195 777 -581 1355 -1164
1744 -503 335 -1133 521 -1940 572 -159 11 -668 15 -659 7z"/>
<path d="M10872 10755 c-618 -1859 -1817 -3068 -3650 -3681 -108 -37 -199 -68
-202 -71 -11 -12 713 7 860 21 788 80 1368 280 1855 641 804 597 1213 1634
1193 3030 l-3 220 -53 -160z"/>
<path d="M2226 9870 c-365 -26 -775 -101 -1189 -218 l-168 -47 83 -7 c46 -3
157 -11 248 -18 756 -53 1469 -239 2105 -549 544 -265 987 -582 1426 -1020
302 -302 550 -607 801 -986 66 -99 121 -182 123 -184 14 -14 -93 380 -157 578
-99 308 -176 497 -303 751 -180 361 -361 622 -610 879 -449 464 -992 725
-1674 807 -157 18 -514 26 -685 14z"/>
<path d="M11812 9401 c-250 -381 -471 -651 -796 -977 -233 -232 -376 -358
-586 -515 -704 -528 -1539 -870 -2460 -1008 -240 -36 -605 -71 -749 -71 -41 0
-72 -2 -70 -4 8 -8 246 -75 409 -115 1182 -289 2144 -188 2871 300 694 466
1184 1276 1475 2438 18 74 32 136 31 136 -1 1 -57 -82 -125 -184z"/>
<path d="M2295 8855 c-480 -51 -941 -195 -1480 -465 -204 -102 -591 -319 -582
-326 1 -1 99 18 217 42 471 95 794 128 1260 127 348 0 513 -11 799 -53 1064
-158 2026 -629 2930 -1434 73 -65 128 -108 121 -95 -7 13 -51 91 -97 172 -776
1370 -1741 2054 -2888 2046 -88 -1 -214 -7 -280 -14z"/>
<path d="M12475 7958 c-927 -832 -1912 -1313 -3010 -1467 -279 -39 -392 -46
-765 -45 -389 1 -530 10 -870 60 -168 24 -393 66 -529 98 -35 8 -60 11 -55 6
5 -5 61 -40 124 -78 492 -295 988 -510 1440 -621 327 -81 539 -105 850 -98
226 5 338 18 520 58 396 87 797 285 1150 568 58 46 188 168 291 270 258 260
473 533 692 881 88 141 260 441 255 446 -2 1 -44 -34 -93 -78z"/>
<path d="M2545 7883 c-362 -42 -632 -116 -953 -261 -327 -148 -697 -393 -1042
-688 -116 -100 -543 -514 -536 -521 2 -2 54 23 117 56 487 256 1072 464 1599
571 783 159 1532 141 2327 -55 439 -109 845 -261 1294 -486 l182 -91 -42 50
c-64 78 -341 342 -499 478 -646 555 -1278 864 -1921 939 -112 13 -440 19 -526
8z"/>
<path d="M2883 6974 c-343 -41 -683 -152 -978 -317 -533 -299 -1033 -816
-1452 -1502 -89 -145 -225 -386 -221 -390 2 -2 46 35 98 82 651 586 1333 996
2068 1243 380 127 758 206 1207 252 172 17 783 17 970 0 289 -27 703 -92 930
-146 59 -14 59 -14 35 4 -52 40 -333 198 -515 292 -448 229 -874 379 -1285
453 -251 45 -623 58 -857 29z"/>
<path d="M7320 6330 c141 -162 531 -514 765 -690 568 -427 1109 -657 1693
-720 141 -16 489 -8 625 14 645 104 1244 409 1866 950 132 115 524 497 517
503 -2 3 -46 -18 -98 -46 -296 -158 -739 -340 -1085 -445 -935 -284 -1838
-318 -2762 -104 -483 111 -910 267 -1395 510 l-180 90 54 -62z"/>
<path d="M3695 6239 c-526 -53 -939 -193 -1321 -448 -378 -252 -699 -608 -953
-1058 -194 -344 -374 -803 -500 -1278 -73 -273 -75 -269 47 -83 296 447 573
782 937 1127 944 897 2182 1401 3605 1468 l145 7 -75 24 c-296 94 -725 183
-1090 227 -158 20 -658 28 -795 14z"/>
<path d="M7240 6150 c34 -66 187 -331 232 -403 203 -326 400 -587 616 -817
314 -335 602 -555 947 -725 360 -178 696 -260 1105 -272 557 -15 1134 130
1795 451 268 131 684 368 615 352 -103 -25 -446 -89 -590 -110 -1413 -204
-2707 83 -3865 857 -246 164 -545 399 -786 617 -49 45 -77 65 -69 50z"/>
<path d="M7166 5861 c30 -129 82 -312 133 -471 232 -729 552 -1286 972 -1696
449 -437 982 -680 1659 -755 145 -16 597 -17 750 -1 378 40 759 116 1155 230
l100 29 -120 7 c-618 35 -1152 130 -1650 294 -256 84 -438 159 -690 282 -532
261 -966 572 -1396 1000 -321 320 -574 631 -838 1034 -50 77 -93 141 -95 143
-2 3 7 -41 20 -96z"/>
<path d="M5160 5793 c-1369 -70 -2319 -576 -2834 -1511 -308 -560 -466 -1315
-454 -2172 l3 -225 68 203 c253 757 598 1389 1068 1953 133 159 459 485 618
618 565 470 1200 818 1950 1068 108 36 198 67 200 69 5 4 -529 2 -619 -3z"/>
<path d="M7000 5524 c0 -517 45 -921 146 -1327 329 -1311 1209 -2065 2649
-2271 237 -34 431 -47 770 -53 193 -3 348 -3 345 0 -3 4 -98 37 -210 75 -113
39 -245 86 -295 105 -1650 641 -2757 1812 -3330 3522 -37 110 -69 202 -71 204
-2 2 -4 -112 -4 -255z"/>
<path d="M5795 5619 c-924 -244 -1563 -567 -2038 -1028 -474 -461 -727 -984
-814 -1685 -23 -185 -22 -626 1 -841 35 -326 104 -675 201 -1015 l52 -185 7
115 c32 538 95 954 212 1385 146 541 378 1058 681 1519 210 319 414 569 702
856 298 297 569 519 946 772 116 77 212 142 214 144 8 8 -16 2 -164 -37z"/>
<path d="M6818 5635 c-23 -66 -92 -325 -126 -475 -96 -416 -142 -786 -142
-1145 1 -1025 393 -1814 1185 -2381 438 -314 1067 -585 1730 -744 50 -12 99
-24 110 -27 11 -3 -61 48 -160 114 -207 137 -465 330 -645 481 -164 138 -548
524 -680 682 -776 933 -1186 2034 -1258 3375 -4 77 -11 131 -14 120z"/>
<path d="M6055 5509 c-1739 -964 -2408 -2204 -2015 -3734 80 -311 184 -583
360 -940 104 -211 328 -610 337 -601 2 1 -6 41 -17 87 -54 232 -111 602 -142
929 -18 200 -15 755 6 960 93 914 372 1697 882 2471 178 271 452 618 673 852
19 20 33 37 31 37 -3 0 -54 -28 -115 -61z"/>
<path d="M6557 5473 c-203 -331 -394 -720 -517 -1058 -265 -726 -303 -1423
-108 -2025 98 -306 284 -642 507 -920 123 -153 432 -457 606 -596 284 -226
682 -487 948 -620 l52 -26 -26 28 c-229 257 -311 355 -462 556 -647 861 -992
1739 -1099 2793 -17 173 -17 784 0 970 27 290 92 704 146 928 7 31 12 57 10
57 -1 0 -27 -39 -57 -87z"/>
<path d="M6248 5403 c-793 -772 -1249 -1588 -1329 -2377 -15 -150 -7 -493 16
-636 101 -656 437 -1292 1031 -1950 124 -137 424 -440 424 -427 0 5 -22 50
-49 100 -69 128 -186 383 -261 567 -632 1562 -561 3109 215 4659 52 105 93
191 90 191 -3 0 -65 -57 -137 -127z"/>
</g>
</svg>
